<svg xmlns="http://www.w3.org/2000/svg" width="1024" height="1024" viewBox="0 0 1024 1024">
<g>
<path d="M 850.43 560.75 C849.72,564.12 849.06,564.64 847.45,563.08 C846.93,562.58 838.62,557.14 829.00,550.99 C819.38,544.84 811.34,539.65 811.14,539.46 C810.94,539.26 811.60,533.57 812.62,526.80 C815.14,509.99 815.15,470.82 812.64,453.50 C805.77,406.07 786.09,357.21 758.68,319.50 C735.88,288.15 704.39,258.86 672.21,239.08 L 662.00 232.81 L 662.00 208.90 C662.00,195.76 662.24,185.00 662.53,185.00 C663.85,185.00 676.36,191.83 689.31,199.64 C749.47,235.87 792.90,282.46 822.48,342.50 C844.05,386.28 854.07,424.36 857.03,473.75 C858.80,503.23 856.73,530.41 850.43,560.75 ZM 190.50 553.87 C183.35,558.51 176.75,562.51 175.84,562.75 C174.04,563.22 173.53,561.35 170.56,543.50 C164.87,509.37 166.05,461.31 173.49,424.50 C182.93,377.76 204.51,329.50 233.01,291.41 C256.20,260.43 287.34,230.79 319.50,209.10 C335.36,198.41 358.14,185.00 360.46,185.00 C360.76,185.00 360.98,195.91 360.94,209.25 L 360.89 233.50 L 346.69 242.79 C327.59,255.29 312.49,267.58 295.53,284.45 C250.58,329.10 223.15,383.63 212.44,449.58 C210.30,462.76 209.41,501.98 210.92,516.50 C211.55,522.55 212.32,530.20 212.63,533.50 L 213.18 539.50 L 208.34 542.46 C205.68,544.09 197.65,549.22 190.50,553.87 ZM 549.00 865.48 C532.60,867.32 497.80,867.31 480.00,865.46 C437.33,861.00 394.86,848.11 358.80,828.65 C349.30,823.52 324.77,808.18 318.61,803.50 L 315.97 801.50 L 335.87 789.25 C346.82,782.51 356.34,777.00 357.04,777.00 C357.74,777.00 363.08,779.78 368.90,783.18 C444.91,827.62 538.05,834.88 617.02,802.54 C630.52,797.01 638.27,793.12 653.88,784.03 C660.63,780.10 666.96,777.02 667.94,777.19 C670.16,777.58 707.93,800.24 707.97,801.20 C708.02,802.33 689.46,815.25 678.27,821.89 C637.30,846.21 595.78,860.20 549.00,865.48 Z" fill="rgb(4,46,72)"/>
<path d="M 523.91 540.83 C518.08,544.22 512.68,546.96 511.91,546.90 C510.34,546.79 509.28,546.19 482.88,530.54 C472.64,524.47 446.44,509.15 424.67,496.50 C402.89,483.85 385.20,473.07 385.36,472.55 C385.51,472.02 406.75,459.51 432.57,444.74 C459.19,429.51 481.13,416.30 483.27,414.22 C490.49,407.20 494.09,395.58 492.07,385.83 C489.74,374.64 484.94,368.59 472.00,360.58 C464.54,355.96 402.37,319.98 389.86,313.05 L 385.22 310.48 L 395.36 304.54 C400.94,301.28 408.65,296.74 412.50,294.46 C421.84,288.93 449.58,272.71 482.00,253.81 C496.58,245.32 509.54,237.72 510.81,236.93 C512.83,235.68 513.27,235.69 514.31,237.00 C514.97,237.82 516.04,238.60 516.70,238.73 C518.14,239.01 545.21,254.79 545.97,255.79 C546.26,256.18 547.17,256.64 548.00,256.82 C548.83,256.99 550.57,257.89 551.89,258.82 C553.20,259.74 556.37,261.62 558.93,263.00 C569.92,268.91 579.00,274.42 579.00,275.18 C579.00,275.63 579.88,276.00 580.95,276.00 C582.02,276.00 583.26,276.58 583.70,277.28 C584.14,277.98 587.98,280.31 592.24,282.44 C596.49,284.58 600.86,287.15 601.94,288.16 C603.03,289.17 604.54,290.00 605.30,290.00 C606.07,290.00 607.50,290.90 608.50,292.00 C609.50,293.10 610.92,294.00 611.65,294.00 C612.39,294.00 613.00,294.48 613.00,295.06 C613.00,295.64 613.42,295.86 613.93,295.54 C614.44,295.23 615.13,295.40 615.45,295.92 C615.77,296.44 618.50,298.00 621.52,299.38 C624.53,300.76 627.00,302.44 627.00,303.11 C627.00,303.78 627.29,304.04 627.65,303.69 C628.39,302.94 636.00,306.98 636.00,308.11 C636.00,308.53 637.01,309.01 638.25,309.19 L 640.50 309.52 L 638.00 311.11 C636.62,311.99 616.01,323.91 592.19,337.60 C568.38,351.29 546.78,364.08 544.19,366.03 C531.28,375.78 528.28,397.42 537.97,410.80 C541.85,416.16 543.29,417.06 595.00,446.44 C618.92,460.03 638.83,471.47 639.24,471.87 C639.95,472.55 635.15,475.63 623.00,482.27 C619.97,483.93 616.83,485.82 616.00,486.47 C615.17,487.13 610.67,489.85 606.00,492.52 C601.33,495.19 593.13,499.99 587.78,503.19 C582.44,506.38 577.86,509.00 577.61,509.00 C577.36,509.00 567.56,514.77 555.83,521.83 C544.10,528.88 529.73,537.43 523.91,540.83 ZM 784.70 809.18 C779.86,811.83 775.35,814.00 774.69,814.00 C773.62,814.00 749.30,800.26 692.50,767.58 C668.52,753.79 664.00,750.98 664.00,749.91 C664.00,749.39 665.69,748.19 667.75,747.23 C669.81,746.28 671.72,745.24 672.00,744.92 C672.95,743.82 712.71,722.00 713.77,722.00 C714.35,722.00 714.98,721.63 715.17,721.18 C715.58,720.16 741.37,706.00 742.80,706.00 C743.37,706.00 743.98,705.63 744.17,705.18 C744.59,704.13 770.39,690.00 771.89,690.00 C772.50,690.00 773.00,689.60 773.00,689.11 C773.00,688.62 774.91,687.45 777.25,686.52 C779.58,685.58 781.76,684.39 782.08,683.87 C782.45,683.28 783.67,683.30 785.34,683.94 C789.43,685.49 886.95,745.74 889.87,748.51 C890.11,748.73 890.34,748.91 890.42,749.15 C891.00,750.93 882.18,755.77 791.27,805.58 ZM 256.00 811.00 C253.20,812.65 250.37,813.96 249.71,813.91 C249.04,813.86 243.10,810.80 236.50,807.11 C229.90,803.42 207.85,791.26 187.50,780.08 C136.15,751.86 134.06,750.66 134.03,749.25 C134.01,748.56 134.47,748.00 135.04,748.00 C135.61,748.00 137.07,747.08 138.27,745.96 C139.48,744.84 141.48,743.67 142.73,743.35 C143.98,743.04 145.00,742.38 145.00,741.89 C145.00,741.40 145.64,741.00 146.42,741.00 C147.20,741.00 147.98,740.65 148.17,740.23 C148.66,739.09 158.49,733.00 159.84,733.00 C160.48,733.00 161.00,732.56 161.00,732.02 C161.00,731.48 162.12,730.76 163.50,730.41 C164.88,730.07 166.00,729.38 166.00,728.89 C166.00,728.40 166.68,728.00 167.50,728.00 C168.32,728.00 169.00,727.58 169.00,727.07 C169.00,726.55 170.01,725.82 171.25,725.43 C172.49,725.05 173.73,724.41 174.00,724.03 C174.79,722.92 185.94,716.00 186.94,716.00 C187.43,716.00 187.98,715.64 188.17,715.20 C188.54,714.31 217.40,696.00 218.43,696.00 C218.79,696.00 219.99,695.16 221.09,694.13 C222.19,693.11 224.76,691.42 226.80,690.38 C228.83,689.35 230.65,688.16 230.83,687.75 C231.02,687.34 231.60,687.00 232.13,687.00 C232.65,687.00 234.05,686.10 235.23,685.00 C236.41,683.90 237.90,683.00 238.54,683.00 C239.62,683.00 254.10,690.74 298.00,714.78 C340.11,737.84 359.52,748.96 359.78,750.21 C359.94,750.98 355.97,753.89 350.28,757.17 C344.90,760.27 333.38,766.91 324.68,771.93 C291.27,791.21 261.84,808.00 261.47,808.00 C261.26,808.00 258.80,809.35 256.00,811.00 Z" fill="rgb(32,131,164)"/>
<path d="M 523.91 540.83 C524.62,540.41 525.45,539.92 526.39,539.37 C524.19,540.69 521.95,542.03 519.67,543.40 L 512.84 547.50 L 512.95 611.75 C513.03,658.79 512.76,676.00 511.94,676.00 C511.32,676.00 502.42,671.21 492.16,665.35 C481.90,659.50 468.33,651.79 462.00,648.22 C455.67,644.66 446.67,639.58 442.00,636.95 C437.33,634.31 429.50,629.89 424.62,627.12 C407.12,617.20 398.39,617.68 377.50,629.71 C362.69,638.24 357.23,645.63 356.32,658.39 C355.88,664.43 357.05,693.23 359.64,740.50 L 360.25 751.50 L 350.37 757.15 C344.94,760.26 333.38,766.91 324.68,771.93 C333.38,766.91 344.90,760.27 350.28,757.17 C355.97,753.89 359.94,750.98 359.78,750.21 C359.52,748.96 340.11,737.84 298.00,714.78 C254.10,690.74 239.62,683.00 238.54,683.00 C237.90,683.00 236.41,683.90 235.23,685.00 C235.01,685.21 234.77,685.41 234.54,685.60 C234.57,685.58 234.59,685.55 234.62,685.52 C235.43,684.71 236.70,683.70 237.43,683.27 C238.53,682.63 238.54,679.70 237.45,666.00 C236.74,656.92 235.65,642.30 235.03,633.50 C233.53,612.16 230.65,575.36 229.44,562.18 C228.97,557.02 229.03,556.87 231.23,557.54 C232.48,557.91 240.70,562.03 249.50,566.69 C258.30,571.35 278.10,581.45 293.50,589.13 C323.31,604.02 328.15,605.65 338.50,604.37 C348.24,603.16 369.95,591.38 376.46,583.78 C378.40,581.51 380.89,577.24 381.99,574.29 C383.90,569.19 384.00,566.54 384.00,520.98 L 384.00 473.03 L 387.75 470.59 C389.81,469.25 411.30,456.84 435.50,443.02 C441.97,439.32 448.16,435.75 453.81,432.44 C447.34,436.23 440.14,440.40 432.57,444.74 C406.75,459.51 385.51,472.02 385.36,472.55 C385.20,473.07 402.89,483.85 424.67,496.50 C446.44,509.15 472.64,524.47 482.88,530.54 C509.28,546.19 510.34,546.79 511.91,546.90 C512.68,546.96 518.08,544.22 523.91,540.83 ZM 513.67 236.31 C512.99,235.75 512.37,235.97 510.81,236.93 C509.54,237.72 496.58,245.32 482.00,253.81 C449.58,272.71 421.84,288.93 412.50,294.46 C408.65,296.74 400.94,301.28 395.36,304.54 L 385.22 310.48 L 389.86 313.05 C394.94,315.86 408.20,323.47 422.67,331.81 C407.66,323.16 393.94,315.31 389.24,312.73 L 383.99 309.84 L 384.24 239.70 L 384.50 169.55 L 390.50 165.92 C404.93,157.21 509.50,97.68 511.15,97.25 C512.90,96.79 512.96,99.45 512.74,166.14 C512.55,221.71 512.64,233.48 513.67,236.31 ZM 878.17 757.63 C888.96,751.44 890.68,749.97 890.42,749.15 C890.34,748.91 890.11,748.73 889.87,748.51 C886.95,745.74 789.43,685.49 785.34,683.94 C783.67,683.30 782.45,683.28 782.08,683.87 C781.84,684.25 780.62,684.99 779.07,685.72 C780.84,684.79 782.38,683.57 782.83,682.66 C783.89,680.50 784.98,669.79 786.99,641.50 C788.00,627.27 788.60,619.10 791.00,586.50 C791.57,578.80 792.14,569.07 792.27,564.88 C792.49,557.46 792.56,557.28 794.72,558.09 C796.62,558.81 821.59,573.05 886.88,610.64 C894.78,615.19 901.46,619.13 901.72,619.39 C901.98,619.64 900.77,637.10 899.03,658.18 C897.29,679.25 894.89,708.58 893.69,723.35 L 891.50 750.19 ZM 559.04 519.90 C569.30,513.75 577.39,509.00 577.61,509.00 L 577.62 509.00 C574.09,511.01 567.64,514.80 559.04,519.90 ZM 531.97 247.21 C524.81,243.03 517.43,238.87 516.70,238.73 C516.33,238.66 515.84,238.39 515.35,238.01 C515.91,238.39 516.44,238.66 516.78,238.73 C517.50,238.88 524.83,243.04 531.97,247.21 ZM 585.18 504.74 C586.01,504.24 586.89,503.72 587.78,503.19 C589.13,502.38 590.66,501.47 592.27,500.52 C592.00,500.69 591.74,500.84 591.50,500.99 C589.75,502.06 587.43,503.43 585.18,504.74 ZM 775.23 687.43 C773.90,688.12 773.00,688.77 773.00,689.11 C773.00,689.60 772.50,690.00 771.89,690.00 C772.50,690.00 773.00,689.59 773.00,689.08 C773.00,688.74 773.90,688.10 775.23,687.43 Z" fill="rgb(114,224,217)"/>
<path d="M 0.00 512.00 L 0.00 0.00 L 512.00 0.00 L 1024.00 0.00 L 1024.00 512.00 L 1024.00 1024.00 L 512.00 1024.00 L 0.00 1024.00 L 0.00 512.00 ZM 549.00 865.48 C595.78,860.20 637.30,846.21 678.27,821.89 C689.46,815.25 708.02,802.33 707.97,801.20 C707.93,800.24 670.16,777.58 667.94,777.19 C666.96,777.02 660.63,780.10 653.88,784.03 C638.27,793.12 630.52,797.01 617.02,802.54 C538.05,834.88 444.91,827.62 368.90,783.18 C363.08,779.78 357.74,777.00 357.04,777.00 C356.34,777.00 346.82,782.51 335.87,789.25 L 315.97 801.50 L 318.61 803.50 C324.77,808.18 349.30,823.52 358.80,828.65 C394.86,848.11 437.33,861.00 480.00,865.46 C497.80,867.31 532.60,867.32 549.00,865.48 ZM 256.00 811.00 C258.80,809.35 261.26,808.00 261.47,808.00 C261.84,808.00 291.27,791.21 324.68,771.93 C333.38,766.91 344.94,760.26 350.37,757.15 L 360.25 751.50 L 359.64 740.50 C357.05,693.23 355.88,664.43 356.32,658.39 C357.23,645.63 362.69,638.24 377.50,629.71 C398.39,617.68 407.12,617.20 424.62,627.12 C429.50,629.89 437.33,634.31 442.00,636.95 C446.67,639.58 455.67,644.66 462.00,648.22 C468.33,651.79 481.90,659.50 492.16,665.35 C502.42,671.21 511.32,676.00 511.94,676.00 C512.76,676.00 513.03,658.79 512.95,611.75 L 512.84 547.50 L 519.67 543.40 C550.92,524.65 574.95,510.41 579.76,507.80 C582.92,506.07 588.20,503.01 591.50,500.99 C594.80,498.97 601.33,495.14 606.00,492.49 C610.67,489.83 615.17,487.13 616.00,486.47 C616.83,485.82 619.97,483.93 623.00,482.27 C635.15,475.63 639.95,472.55 639.24,471.87 C638.83,471.47 618.92,460.03 595.00,446.44 C543.29,417.06 541.85,416.16 537.97,410.80 C528.28,397.42 531.28,375.78 544.19,366.03 C546.78,364.08 568.38,351.29 592.19,337.60 C616.01,323.91 636.62,311.99 638.00,311.11 L 640.50 309.52 L 638.25 309.19 C637.01,309.01 636.00,308.53 636.00,308.11 C636.00,306.98 628.39,302.94 627.65,303.69 C627.29,304.04 627.00,303.78 627.00,303.11 C627.00,302.44 624.53,300.76 621.52,299.38 C618.50,298.00 615.77,296.44 615.45,295.92 C615.13,295.40 614.44,295.23 613.93,295.54 C613.42,295.86 613.00,295.64 613.00,295.06 C613.00,294.48 612.39,294.00 611.65,294.00 C610.92,294.00 609.50,293.10 608.50,292.00 C607.50,290.90 606.07,290.00 605.30,290.00 C604.54,290.00 603.03,289.17 601.94,288.16 C600.86,287.15 596.49,284.58 592.24,282.44 C587.98,280.31 584.14,277.98 583.70,277.28 C583.26,276.58 582.02,276.00 580.95,276.00 C579.88,276.00 579.00,275.63 579.00,275.18 C579.00,274.42 569.92,268.91 558.93,263.00 C556.37,261.62 553.20,259.74 551.89,258.82 C550.57,257.89 548.83,256.99 548.00,256.82 C547.17,256.64 546.26,256.18 545.97,255.79 C545.25,254.84 518.19,239.03 516.78,238.73 C516.17,238.60 514.95,237.82 514.08,237.00 C512.66,235.66 512.52,228.31 512.74,166.14 C512.96,99.45 512.90,96.79 511.15,97.25 C509.50,97.68 404.93,157.21 390.50,165.92 L 384.50 169.55 L 384.24 239.70 L 383.99 309.84 L 389.24 312.73 C400.53,318.93 463.97,355.60 472.00,360.58 C484.94,368.59 489.74,374.64 492.07,385.83 C494.09,395.58 490.49,407.20 483.27,414.22 C481.13,416.30 460.42,428.79 435.50,443.02 C411.30,456.84 389.81,469.25 387.75,470.59 L 384.00 473.03 L 384.00 520.98 C384.00,566.54 383.90,569.19 381.99,574.29 C380.89,577.24 378.40,581.51 376.46,583.78 C369.95,591.38 348.24,603.16 338.50,604.37 C328.15,605.65 323.31,604.02 293.50,589.13 C278.10,581.45 258.30,571.35 249.50,566.69 C240.70,562.03 232.48,557.91 231.23,557.54 C229.03,556.87 228.97,557.02 229.44,562.18 C230.65,575.36 233.53,612.16 235.03,633.50 C235.65,642.30 236.74,656.92 237.45,666.00 C238.54,679.70 238.53,682.63 237.43,683.27 C236.70,683.70 235.43,684.71 234.62,685.52 C233.81,686.33 232.70,687.00 232.15,687.00 C231.61,687.00 231.02,687.34 230.83,687.75 C230.65,688.16 228.83,689.35 226.80,690.38 C224.76,691.42 222.19,693.11 221.09,694.13 C219.99,695.16 218.79,696.00 218.43,696.00 C217.40,696.00 188.54,714.31 188.17,715.20 C187.98,715.64 187.43,716.00 186.94,716.00 C185.94,716.00 174.79,722.92 174.00,724.03 C173.73,724.41 172.49,725.05 171.25,725.43 C170.01,725.82 169.00,726.55 169.00,727.07 C169.00,727.58 168.32,728.00 167.50,728.00 C166.68,728.00 166.00,728.40 166.00,728.89 C166.00,729.38 164.88,730.07 163.50,730.41 C162.12,730.76 161.00,731.48 161.00,732.02 C161.00,732.56 160.48,733.00 159.84,733.00 C158.49,733.00 148.66,739.09 148.17,740.23 C147.98,740.65 147.20,741.00 146.42,741.00 C145.64,741.00 145.00,741.40 145.00,741.89 C145.00,742.38 143.98,743.04 142.73,743.35 C141.48,743.67 139.48,744.84 138.27,745.96 C137.07,747.08 135.61,748.00 135.04,748.00 C134.47,748.00 134.01,748.56 134.03,749.25 C134.06,750.66 136.15,751.86 187.50,780.08 C207.85,791.26 229.90,803.42 236.50,807.11 C243.10,810.80 249.04,813.86 249.71,813.91 C250.37,813.96 253.20,812.65 256.00,811.00 ZM 784.70 809.18 C830.02,784.33 852.64,771.88 870.50,761.91 L 891.50 750.19 L 893.69 723.35 C894.89,708.58 897.29,679.25 899.03,658.18 C900.77,637.10 901.98,619.64 901.72,619.39 C901.46,619.13 894.78,615.19 886.88,610.64 C821.59,573.05 796.62,558.81 794.72,558.09 C792.56,557.28 792.49,557.46 792.27,564.88 C792.14,569.07 791.57,578.80 791.00,586.50 C788.60,619.10 788.00,627.27 786.99,641.50 C784.98,669.79 783.89,680.50 782.83,682.66 C782.24,683.85 779.79,685.57 777.38,686.49 C774.97,687.41 773.00,688.58 773.00,689.08 C773.00,689.59 772.50,690.00 771.89,690.00 C770.39,690.00 744.59,704.13 744.17,705.18 C743.98,705.63 743.37,706.00 742.80,706.00 C741.37,706.00 715.58,720.16 715.17,721.18 C714.98,721.63 714.35,722.00 713.77,722.00 C712.71,722.00 672.95,743.82 672.00,744.92 C671.72,745.24 669.81,746.28 667.75,747.23 C665.69,748.19 664.00,749.39 664.00,749.91 C664.00,750.98 668.52,753.79 692.50,767.58 C749.30,800.26 773.62,814.00 774.69,814.00 C775.35,814.00 779.86,811.83 784.70,809.18 ZM 850.43 560.75 C856.73,530.41 858.80,503.23 857.03,473.75 C854.07,424.36 844.05,386.28 822.48,342.50 C792.90,282.46 749.47,235.87 689.31,199.64 C676.36,191.83 663.85,185.00 662.53,185.00 C662.24,185.00 662.00,195.76 662.00,208.90 L 662.00 232.81 L 672.21 239.08 C704.39,258.86 735.88,288.15 758.68,319.50 C786.09,357.21 805.77,406.07 812.64,453.50 C815.15,470.82 815.14,509.99 812.62,526.80 C811.60,533.57 810.94,539.26 811.14,539.46 C811.34,539.65 819.38,544.84 829.00,550.99 C838.62,557.14 846.93,562.58 847.45,563.08 C849.06,564.64 849.72,564.12 850.43,560.75 ZM 190.50 553.87 C197.65,549.22 205.68,544.09 208.34,542.46 L 213.18 539.50 L 212.63 533.50 C212.32,530.20 211.55,522.55 210.92,516.50 C209.41,501.98 210.30,462.76 212.44,449.58 C223.15,383.63 250.58,329.10 295.53,284.45 C312.49,267.58 327.59,255.29 346.69,242.79 L 360.89 233.50 L 360.94 209.25 C360.98,195.91 360.76,185.00 360.46,185.00 C358.14,185.00 335.36,198.41 319.50,209.10 C287.34,230.79 256.20,260.43 233.01,291.41 C204.51,329.50 182.93,377.76 173.49,424.50 C166.05,461.31 164.87,509.37 170.56,543.50 C173.53,561.35 174.04,563.22 175.84,562.75 C176.75,562.51 183.35,558.51 190.50,553.87 Z" fill="rgb(251,253,251)"/>
</g>
</svg>
