<svg xmlns="http://www.w3.org/2000/svg" width="1024" height="1024" viewBox="0 0 1024 1024">
<g>
<path d="M 557.91 520.52 C533.80,534.55 513.49,546.21 512.79,546.43 C512.08,546.65 502.05,541.31 490.50,534.57 C478.95,527.83 450.61,511.48 427.53,498.24 C404.44,485.00 385.43,473.78 385.27,473.30 C385.11,472.82 404.22,461.43 427.74,447.99 C478.36,419.05 479.73,418.21 483.82,413.55 C490.15,406.34 491.48,402.52 491.49,391.50 C491.50,382.96 491.16,380.84 489.16,377.00 C486.38,371.63 480.93,365.71 475.69,362.34 C472.31,360.18 413.41,326.05 392.63,314.23 L 384.77 309.75 L 387.63 307.99 C389.21,307.02 409.62,295.32 433.00,281.99 C456.38,268.67 479.10,255.63 483.50,253.02 C487.90,250.42 496.11,245.70 501.74,242.54 L 511.99 236.79 L 539.24 252.28 C554.24,260.79 582.70,276.86 602.50,287.99 C622.30,299.12 638.84,308.53 639.25,308.91 C639.66,309.29 624.14,318.75 604.75,329.93 C548.29,362.50 545.70,364.07 541.45,368.45 C534.89,375.20 532.61,381.00 532.57,391.00 C532.55,398.11 532.97,400.42 535.17,405.15 C536.61,408.25 539.55,412.53 541.69,414.65 C544.12,417.06 563.29,428.60 592.79,445.44 L 640.00 472.37 L 622.25 482.86 C612.49,488.63 604.35,493.72 604.17,494.18 C603.98,494.63 603.36,495.00 602.79,495.00 C602.22,495.00 582.02,506.48 557.91,520.52 ZM 193.66 552.35 C183.29,558.76 174.70,564.00 174.56,564.00 C174.42,564.00 173.56,559.61 172.64,554.25 C163.05,498.16 166.98,438.53 183.70,386.50 C208.21,310.18 260.03,244.37 329.50,201.30 C336.76,196.80 360.47,184.00 361.55,184.00 C361.80,184.00 362.00,194.93 362.00,208.28 L 362.00 232.57 L 351.25 239.53 C323.67,257.40 301.77,276.00 283.57,297.00 C265.34,318.04 249.44,342.18 238.54,365.37 C215.16,415.12 205.66,474.77 212.55,528.47 C213.33,534.50 213.63,539.72 213.23,540.07 C212.83,540.42 204.02,545.94 193.66,552.35 ZM 852.88 547.42 C851.74,554.53 850.51,561.16 850.14,562.15 C849.56,563.72 846.83,562.32 829.95,551.83 L 810.43 539.69 L 811.66 529.60 C818.09,476.48 809.48,418.83 787.82,370.00 C765.41,319.48 727.65,275.94 677.80,243.17 L 663.10 233.50 L 663.05 208.74 L 663.00 183.98 L 671.75 188.38 C709.49,207.34 749.62,239.33 777.39,272.61 C796.68,295.71 807.99,313.12 821.51,340.50 C844.03,386.13 855.38,432.58 856.70,484.50 C857.31,508.50 856.21,526.58 852.88,547.42 ZM 548.11 865.53 C535.18,867.05 505.81,868.09 496.00,867.38 C444.86,863.69 399.80,850.55 354.50,826.12 C343.37,820.12 316.00,802.87 316.00,801.86 C316.00,801.50 319.94,798.84 324.75,795.95 C340.02,786.76 356.94,777.00 357.58,777.00 C357.92,777.00 363.90,780.23 370.85,784.17 C399.14,800.20 428.84,811.65 457.08,817.40 C510.53,828.30 566.66,823.02 616.78,802.39 C627.67,797.91 648.45,787.41 658.64,781.25 L 666.78 776.32 L 684.14 786.70 C693.69,792.40 702.96,797.81 704.75,798.72 C706.54,799.63 708.00,800.73 708.00,801.16 C708.00,802.31 681.25,819.73 669.15,826.46 C631.93,847.17 590.42,860.57 548.11,865.53 ZM 291.56 790.65 C269.59,803.49 251.14,813.98 250.56,813.95 C249.97,813.93 241.40,809.51 231.50,804.14 C211.78,793.45 133.98,751.04 132.70,750.29 C132.27,750.04 134.29,748.37 137.20,746.60 C142.83,743.17 147.70,740.12 202.28,705.79 C221.40,693.76 237.70,683.67 238.49,683.37 C239.76,682.88 253.96,690.38 295.50,713.49 C302.65,717.47 320.09,727.11 334.25,734.93 C348.41,742.74 359.99,749.45 359.98,749.82 C359.96,750.56 352.26,755.16 291.56,790.65 ZM 794.61 803.18 C783.67,809.13 774.44,814.00 774.11,813.99 C773.37,813.98 760.82,806.78 721.00,783.51 C704.22,773.70 685.55,762.81 679.50,759.29 C673.45,755.77 667.43,752.08 666.12,751.09 L 663.73 749.29 L 671.12 745.25 C678.19,741.39 728.66,713.62 766.44,692.81 C776.31,687.38 785.03,683.18 785.83,683.49 C786.63,683.79 800.61,692.43 816.89,702.68 C855.54,727.00 870.47,736.38 881.75,743.46 C886.84,746.65 891.00,749.62 891.00,750.05 C891.00,750.49 873.79,760.19 852.75,771.60 C831.71,783.01 805.55,797.22 794.61,803.18 Z" fill="rgb(5,83,113)"/>
<path d="M 359.97 749.79 C359.50,749.16 348.11,742.58 334.25,734.93 C320.09,727.11 302.65,717.47 295.50,713.49 C253.96,690.38 239.76,682.88 238.49,683.37 C237.86,683.61 227.39,690.06 213.49,698.76 C217.25,696.39 220.94,694.06 224.50,691.82 C236.10,684.51 239.45,681.93 239.27,680.43 C239.15,679.37 238.58,670.62 238.02,661.00 C236.71,638.71 235.33,618.45 232.02,573.06 C231.48,565.67 231.30,559.37 231.61,559.06 C231.92,558.75 252.05,568.50 276.34,580.72 C300.63,592.94 322.67,603.47 325.33,604.11 C332.67,605.89 343.65,604.71 350.11,601.46 C366.86,593.04 373.76,588.02 378.95,580.50 C384.50,572.46 384.50,572.44 384.50,520.62 L 384.50 472.73 L 427.00 448.39 C447.21,436.82 459.62,429.73 467.45,425.13 C459.60,429.76 447.38,436.76 427.74,447.99 C404.22,461.43 385.11,472.82 385.27,473.30 C385.43,473.78 404.44,485.00 427.53,498.24 C450.61,511.48 478.95,527.83 490.50,534.57 C502.05,541.31 512.08,546.65 512.79,546.43 C513.42,546.24 529.54,536.99 550.06,525.08 L 512.00 547.23 L 512.00 675.17 L 504.75 671.24 C500.76,669.07 485.35,660.41 470.50,651.99 C432.10,630.21 415.00,621.09 411.17,620.37 C409.34,620.03 404.61,619.96 400.67,620.22 C392.33,620.76 383.90,624.50 369.98,633.82 C363.00,638.50 360.97,640.47 358.50,645.00 C355.59,650.35 355.51,650.83 355.76,662.50 C355.90,669.10 356.91,689.58 358.00,708.00 C359.10,726.42 359.99,743.53 359.98,746.00 ZM 512.00 166.40 L 512.00 236.80 L 511.99 236.79 L 501.74 242.54 C496.11,245.70 487.90,250.42 483.50,253.02 C479.10,255.63 456.38,268.67 433.00,281.99 C409.62,295.32 389.21,307.02 387.63,307.99 L 385.00 309.61 L 385.00 169.28 L 390.75 165.77 C400.97,159.53 511.06,96.00 511.65,96.00 C511.84,96.00 512.00,127.68 512.00,166.40 ZM 794.61 803.18 C805.55,797.22 831.71,783.01 852.75,771.60 C873.79,760.19 891.00,750.49 891.00,750.05 C891.00,749.62 886.84,746.65 881.75,743.46 C870.47,736.38 855.54,727.00 816.89,702.68 C800.61,692.43 786.63,683.79 785.83,683.49 C785.10,683.21 777.72,686.71 768.90,691.47 C777.04,686.93 783.49,683.12 783.99,682.51 C784.57,681.81 785.48,674.09 786.01,665.37 C787.32,643.64 789.27,618.39 792.01,587.50 C792.60,580.90 793.35,572.00 793.68,567.72 C794.02,563.44 794.64,559.72 795.06,559.46 C795.49,559.20 798.46,560.51 801.67,562.38 C807.83,565.98 886.75,610.34 895.83,615.31 C898.76,616.92 901.37,618.81 901.65,619.52 C901.92,620.23 900.77,637.39 899.09,657.66 C897.41,677.92 895.07,707.10 893.88,722.50 C892.70,737.90 891.68,750.54 891.62,750.59 C891.55,750.64 874.17,760.06 853.00,771.52 C831.83,782.98 805.55,797.22 794.61,803.18 ZM 330.33 767.94 C355.05,753.43 359.68,750.54 359.97,749.88 L 359.97 750.50 L 345.73 758.90 C342.71,760.68 337.21,763.91 330.33,767.94 ZM 165.53 728.90 C146.64,740.77 141.96,743.69 138.29,745.93 C142.02,743.63 152.35,737.16 165.53,728.90 ZM 746.37 703.87 C712.77,722.36 676.99,742.04 671.12,745.25 C675.18,743.03 693.80,732.79 712.50,722.50 C723.37,716.52 735.85,709.65 746.37,703.87 ZM 482.21 415.29 C482.60,414.87 482.99,414.43 483.44,413.93 C490.07,406.59 491.48,402.67 491.49,391.50 C491.48,402.52 490.15,406.34 483.82,413.55 C483.27,414.17 482.78,414.73 482.21,415.29 ZM 564.81 516.51 C585.76,504.36 602.28,495.00 602.79,495.00 C602.17,495.07 585.76,504.37 564.81,516.51 ZM 602.79 495.00 C603.29,495.00 603.83,494.72 604.08,494.34 C603.83,494.72 603.30,495.00 602.80,495.00 C602.80,495.00 602.79,495.00 602.79,495.00 Z" fill="rgb(72,226,196)"/>
<path d="M 557.91 520.52 C560.25,519.16 562.56,517.82 564.81,516.51 C564.82,516.50 564.84,516.49 564.86,516.48 C585.79,504.35 602.17,495.07 602.79,495.00 L 602.80 495.00 C603.23,495.00 603.68,494.79 603.96,494.50 C604.00,494.45 604.04,494.39 604.08,494.34 C604.11,494.29 604.14,494.23 604.17,494.18 C604.35,493.72 612.49,488.63 622.25,482.86 L 639.93 472.42 L 639.98 519.48 C640.01,545.42 640.42,567.97 640.88,569.60 C643.79,579.72 651.10,587.92 664.00,595.50 C677.58,603.49 683.04,605.27 692.51,604.79 L 700.52 604.38 L 743.89 582.60 C767.75,570.62 788.91,560.24 790.92,559.53 C794.41,558.30 794.88,558.41 801.04,562.01 C804.24,563.88 824.88,575.52 846.20,587.51 C825.07,575.63 804.68,564.14 801.67,562.38 C798.46,560.51 795.49,559.20 795.06,559.46 C794.64,559.72 794.02,563.44 793.68,567.72 C793.35,572.00 792.60,580.90 792.01,587.50 C789.27,618.39 787.32,643.64 786.01,665.37 C785.48,674.09 784.57,681.81 783.99,682.51 C783.49,683.12 777.04,686.93 768.90,691.47 C768.09,691.91 767.27,692.36 766.44,692.81 C760.02,696.35 753.24,700.08 746.37,703.87 C735.85,709.65 723.37,716.52 712.50,722.50 C693.80,732.79 675.18,743.03 671.12,745.25 L 664.94 748.63 C665.00,748.49 665.09,748.35 665.21,748.21 C666.27,746.90 666.26,746.76 665.18,747.41 C664.11,748.05 663.98,746.44 664.46,738.85 C668.09,681.39 669.11,661.62 668.69,656.81 C668.07,649.60 664.73,642.89 659.44,638.18 C653.89,633.26 641.65,625.72 633.86,622.44 C628.26,620.08 626.56,619.83 619.02,620.21 C609.33,620.70 610.09,620.38 584.50,634.97 C560.51,648.66 558.57,649.75 548.50,655.26 C543.55,657.97 537.03,661.66 534.00,663.45 C530.97,665.24 524.96,668.63 520.64,670.99 L 512.78 675.26 L 512.00 674.90 L 512.00 547.23 L 550.06 525.08 C552.62,523.60 555.24,522.07 557.91,520.52 ZM 512.00 166.40 C512.00,129.49 511.86,98.98 511.68,96.21 C511.97,96.07 512.14,96.00 512.20,96.00 C512.69,96.00 519.48,99.67 527.29,104.15 C535.11,108.63 546.90,115.31 553.50,118.99 C573.67,130.24 574.93,130.96 593.50,141.78 C629.64,162.85 637.26,167.40 638.62,168.76 C639.77,169.91 640.00,181.84 640.00,239.87 L 640.00 309.60 L 604.75 329.93 C624.14,318.75 639.66,309.29 639.25,308.91 C638.84,308.53 622.30,299.12 602.50,287.99 C582.70,276.86 554.24,260.79 539.24,252.28 L 512.00 236.80 ZM 165.53 728.90 C152.35,737.16 142.02,743.63 138.29,745.93 C137.92,746.16 137.57,746.38 137.20,746.60 C135.15,747.85 133.54,749.04 132.92,749.73 C132.59,749.51 132.42,749.38 132.41,749.34 C132.37,748.88 132.06,747.83 131.74,747.00 C131.42,746.17 130.88,740.33 130.55,734.00 C130.21,727.67 129.51,717.78 128.99,712.00 C126.19,680.69 121.82,620.91 122.26,619.77 C122.54,619.04 130.58,614.02 140.13,608.60 C149.68,603.18 160.43,597.07 164.00,595.01 C167.57,592.96 183.99,583.71 200.48,574.45 L 230.46 557.64 L 275.48 580.29 C300.24,592.75 322.67,603.47 325.33,604.11 C326.40,604.37 327.56,604.57 328.77,604.70 C327.56,604.57 326.40,604.37 325.33,604.11 C322.67,603.47 300.63,592.94 276.34,580.72 C252.05,568.50 231.92,558.75 231.61,559.06 C231.30,559.37 231.48,565.67 232.02,573.06 C235.33,618.45 236.71,638.71 238.02,661.00 C238.58,670.62 239.15,679.37 239.27,680.43 C239.45,681.93 236.10,684.51 224.50,691.82 C220.94,694.06 217.25,696.39 213.49,698.76 C209.94,700.98 206.17,703.34 202.28,705.79 C186.10,715.96 174.29,723.39 165.53,728.90 ZM 226.69 801.53 C212.27,793.78 193.46,783.53 176.44,774.17 C195.15,784.37 215.27,795.33 226.69,801.53 ZM 755.46 803.58 C768.66,811.21 773.65,813.98 774.11,813.99 C774.33,813.99 778.48,811.85 784.45,808.66 C781.28,810.38 779.02,811.61 777.80,812.28 L 774.11 814.31 L 764.80 808.97 C762.72,807.78 759.63,805.99 755.46,803.58 ZM 679.38 759.22 L 679.50 759.29 C685.55,762.81 704.22,773.70 721.00,783.51 C727.34,787.21 732.99,790.51 738.01,793.44 C726.06,786.48 710.33,777.31 690.50,765.74 C686.11,763.18 682.44,761.03 679.38,759.22 ZM 478.74 656.65 C490.67,663.40 501.50,669.47 504.75,671.24 L 506.13 671.99 C502.41,670.00 496.18,666.54 490.00,663.04 C486.96,661.31 483.02,659.08 478.74,656.65 ZM 397.98 620.50 C398.88,620.37 399.78,620.27 400.67,620.22 C402.27,620.11 404.00,620.06 405.61,620.06 L 402.56 620.20 C400.77,620.29 399.29,620.38 397.98,620.50 ZM 498.72 103.29 C490.28,108.12 478.50,114.89 465.78,122.22 C473.61,117.70 481.57,113.11 489.40,108.61 C492.70,106.71 495.86,104.91 498.72,103.29 ZM 250.34 813.89 C250.45,813.93 250.52,813.95 250.56,813.95 C250.91,813.97 258.10,809.96 268.74,803.87 C258.10,809.97 250.91,813.97 250.56,813.95 C250.52,813.95 250.45,813.93 250.34,813.89 Z" fill="rgb(192,238,176)"/>
<path d="M 0.00 512.00 L 0.00 0.00 L 512.00 0.00 L 1024.00 0.00 L 1024.00 512.00 L 1024.00 1024.00 L 512.00 1024.00 L 0.00 1024.00 L 0.00 512.00 ZM 548.11 865.53 C590.42,860.57 631.93,847.17 669.15,826.46 C681.25,819.73 708.00,802.31 708.00,801.16 C708.00,800.73 706.54,799.63 704.75,798.72 C702.96,797.81 693.69,792.40 684.14,786.70 L 666.78 776.32 L 658.64 781.25 C648.45,787.41 627.67,797.91 616.78,802.39 C566.66,823.02 510.53,828.30 457.08,817.40 C428.84,811.65 399.14,800.20 370.85,784.17 C363.90,780.23 357.92,777.00 357.58,777.00 C356.94,777.00 340.02,786.76 324.75,795.95 C319.94,798.84 316.00,801.50 316.00,801.86 C316.00,802.87 343.37,820.12 354.50,826.12 C399.80,850.55 444.86,863.69 496.00,867.38 C505.81,868.09 535.18,867.05 548.11,865.53 ZM 291.56 790.65 C313.52,777.80 337.90,763.51 345.73,758.90 L 359.97 750.50 L 359.98 746.00 C359.99,743.53 359.10,726.42 358.00,708.00 C356.91,689.58 355.90,669.10 355.76,662.50 C355.51,650.83 355.59,650.35 358.50,645.00 C360.97,640.47 363.00,638.50 369.98,633.82 C374.64,630.70 381.84,626.46 385.98,624.39 C392.63,621.07 394.55,620.58 402.56,620.20 L 411.63 619.78 L 424.06 626.23 C430.90,629.78 445.05,637.54 455.50,643.47 C465.95,649.40 481.48,658.20 490.00,663.04 C498.52,667.87 507.14,672.60 509.14,673.55 L 512.78 675.26 L 520.64 670.99 C524.96,668.63 530.97,665.24 534.00,663.45 C537.03,661.66 543.55,657.97 548.50,655.26 C558.57,649.75 560.51,648.66 584.50,634.97 C610.09,620.38 609.33,620.70 619.02,620.21 C626.56,619.83 628.26,620.08 633.86,622.44 C641.65,625.72 653.89,633.26 659.44,638.18 C664.73,642.89 668.07,649.60 668.69,656.81 C669.11,661.62 668.09,681.39 664.46,738.85 C663.98,746.44 664.11,748.05 665.18,747.41 C666.26,746.76 666.27,746.90 665.21,748.21 C663.79,749.97 665.46,751.12 690.50,765.74 C733.05,790.57 756.69,804.32 764.80,808.97 L 774.11 814.31 L 777.80 812.28 C783.67,809.06 813.39,792.95 854.00,770.97 C874.62,759.81 891.55,750.64 891.62,750.59 C891.68,750.54 892.70,737.90 893.88,722.50 C895.07,707.10 897.41,677.92 899.09,657.66 C900.77,637.39 901.92,620.23 901.65,619.52 C901.37,618.81 898.76,616.92 895.83,615.31 C885.86,609.85 807.53,565.80 801.04,562.01 C794.88,558.41 794.41,558.30 790.92,559.53 C788.91,560.24 767.75,570.62 743.89,582.60 L 700.52 604.38 L 692.51 604.79 C683.04,605.27 677.58,603.49 664.00,595.50 C651.10,587.92 643.79,579.72 640.88,569.60 C640.42,567.97 640.01,545.42 639.98,519.48 L 639.93 472.33 L 592.75 445.41 C563.27,428.60 544.12,417.05 541.69,414.65 C539.55,412.53 536.61,408.25 535.17,405.15 C532.97,400.42 532.55,398.11 532.57,391.00 C532.61,381.00 534.89,375.20 541.45,368.45 C545.70,364.07 548.29,362.50 604.75,329.93 L 640.00 309.60 L 640.00 239.87 C640.00,181.84 639.77,169.91 638.62,168.76 C637.26,167.40 629.64,162.85 593.50,141.78 C574.93,130.96 573.67,130.24 553.50,118.99 C546.90,115.31 535.11,108.63 527.29,104.15 C519.48,99.67 512.69,96.00 512.20,96.00 C511.71,96.00 501.45,101.67 489.40,108.61 C444.93,134.20 396.34,162.36 390.75,165.77 L 385.00 169.28 L 385.00 239.58 L 385.00 309.88 L 392.75 314.29 C413.58,326.15 472.33,360.19 475.69,362.34 C480.93,365.71 486.38,371.63 489.16,377.00 C491.16,380.84 491.50,382.96 491.49,391.50 C491.48,402.67 490.07,406.59 483.44,413.93 C479.33,418.49 480.85,417.56 427.00,448.39 L 384.50 472.73 L 384.50 520.62 C384.50,572.44 384.50,572.46 378.95,580.50 C373.76,588.02 366.86,593.04 350.11,601.46 C343.65,604.71 332.67,605.89 325.33,604.11 C322.67,603.47 300.24,592.75 275.48,580.29 L 230.46 557.64 L 200.48 574.45 C183.99,583.71 167.57,592.96 164.00,595.01 C160.43,597.07 149.68,603.18 140.13,608.60 C130.58,614.02 122.54,619.04 122.26,619.77 C121.82,620.91 126.19,680.69 128.99,712.00 C129.51,717.78 130.21,727.67 130.55,734.00 C130.88,740.33 131.42,746.17 131.74,747.00 C132.06,747.83 132.37,748.88 132.41,749.34 C132.53,750.43 248.50,813.87 250.56,813.95 C251.14,813.98 269.59,803.49 291.56,790.65 ZM 193.66 552.35 C204.02,545.94 212.83,540.42 213.23,540.07 C213.63,539.72 213.33,534.50 212.55,528.47 C205.66,474.77 215.16,415.12 238.54,365.37 C249.44,342.18 265.34,318.04 283.57,297.00 C301.77,276.00 323.67,257.40 351.25,239.53 L 362.00 232.57 L 362.00 208.28 C362.00,194.93 361.80,184.00 361.55,184.00 C360.47,184.00 336.76,196.80 329.50,201.30 C260.03,244.37 208.21,310.18 183.70,386.50 C166.98,438.53 163.05,498.16 172.64,554.25 C173.56,559.61 174.42,564.00 174.56,564.00 C174.70,564.00 183.29,558.76 193.66,552.35 ZM 852.88 547.42 C856.21,526.58 857.31,508.50 856.70,484.50 C855.38,432.58 844.03,386.13 821.51,340.50 C807.99,313.12 796.68,295.71 777.39,272.61 C749.62,239.33 709.49,207.34 671.75,188.38 L 663.00 183.98 L 663.05 208.74 L 663.10 233.50 L 677.80 243.17 C727.65,275.94 765.41,319.48 787.82,370.00 C809.48,418.83 818.09,476.48 811.66,529.60 L 810.43 539.69 L 829.95 551.83 C846.83,562.32 849.56,563.72 850.14,562.15 C850.51,561.16 851.74,554.53 852.88,547.42 Z" fill="rgb(254,254,254)"/>
</g>
</svg>